<?xml version="1.0" encoding="UTF-8" standalone="no"?><svg xmlns="http://www.w3.org/2000/svg" xmlns:xlink="http://www.w3.org/1999/xlink" contentStyleType="text/css" height="345px" preserveAspectRatio="none" style="width:1271px;height:345px;background:#FFFFFF;" version="1.1" viewBox="0 0 1271 345" width="1271px" zoomAndPan="magnify"><defs/><g><ellipse cx="454" cy="16" fill="#222222" rx="10" ry="10" style="stroke:none;stroke-width:1.0;"/><g id="I"><rect fill="#F1F1F1" height="92.1719" rx="12.5" ry="12.5" style="stroke:#181818;stroke-width:0.5;" width="804" x="52" y="87"/><line style="stroke:#181818;stroke-width:0.5;" x1="52" x2="856" y1="113.2969" y2="113.2969"/><text fill="#000000" font-family="sans-serif" font-size="14" lengthAdjust="spacing" textLength="4" x="452" y="104.9951">I</text><text fill="#000000" font-family="sans-serif" font-size="12" font-weight="bold" lengthAdjust="spacing" textLength="86" x="57" y="129.4355">Initial State</text><text fill="#000000" font-family="sans-serif" font-size="12" lengthAdjust="spacing" textLength="784" x="57" y="143.4043">The storage state is uninitialized and there is no flow, but it should have balance of tokens equal to whatever the factory dictated.</text><text fill="#000000" font-family="sans-serif" font-size="12" lengthAdjust="spacing" textLength="764" x="57" y="157.373">The contract is only for this initial state briefly as we call `initialize()` in the same transaction that we create the clone instance.</text><text fill="#000000" font-family="sans-serif" font-size="12" lengthAdjust="spacing" textLength="51" x="57" y="171.3418">It should</text><text fill="#000000" font-family="sans-serif" font-size="12" font-weight="bold" lengthAdjust="spacing" textLength="25" x="112" y="171.3418">not</text><text fill="#000000" font-family="sans-serif" font-size="12" lengthAdjust="spacing" textLength="573" x="141" y="171.3418">be possible to call any of the functions in this contract in the initial state other than `initialize()`.</text></g><g id="V"><rect fill="#F1F1F1" height="50.2656" rx="12.5" ry="12.5" style="stroke:#181818;stroke-width:0.5;" width="100" x="7" y="289"/><line style="stroke:#181818;stroke-width:0.5;" x1="7" x2="107" y1="315.2969" y2="315.2969"/><text fill="#000000" font-family="sans-serif" font-size="14" lengthAdjust="spacing" textLength="10" x="52" y="306.9951">V</text><text fill="#000000" font-family="sans-serif" font-size="12" lengthAdjust="spacing" textLength="80" x="12" y="331.4355">Vesting State</text></g><g id="Revert"><rect fill="#F1F1F1" height="50.2656" rx="12.5" ry="12.5" style="stroke:#181818;stroke-width:0.5;" width="276" x="714" y="289"/><line style="stroke:#181818;stroke-width:0.5;" x1="714" x2="990" y1="315.2969" y2="315.2969"/><text fill="#000000" font-family="sans-serif" font-size="14" lengthAdjust="spacing" textLength="49" x="827.5" y="306.9951">Revert</text><text fill="#000000" font-family="sans-serif" font-size="12" lengthAdjust="spacing" textLength="256" x="719" y="331.4355">"Initializable: contract is already initialized"</text></g><!--MD5=[fca122afa623a75fa7f23d1f1127360e]
link *start to I--><g id="link_*start_I"><path d="M454,26.024 C454,38.132 454,60.563 454,81.682 " fill="none" id="*start-to-I" style="stroke:#181818;stroke-width:1.0;"/><polygon fill="#181818" points="454,86.73,458,77.73,454,81.73,450,77.73,454,86.73" style="stroke:#181818;stroke-width:1.0;"/></g><!--MD5=[f962f80b0f727d57b5011c5e98d75ce7]
link I to V--><g id="link_I_V"><path d="M104.213,179.086 C81.4291,187.432 63.7014,197.311 54,209 C37.0551,229.417 40.5436,260.6447 46.5953,283.5546 " fill="none" id="I-to-V" style="stroke:#181818;stroke-width:1.0;"/><polygon fill="#181818" points="48.0047,288.6016,49.4366,278.8574,46.6599,283.7859,41.7314,281.0091,48.0047,288.6016" style="stroke:#181818;stroke-width:1.0;"/><path d="M59,214 L59,254 L804,254 L804,224 L794,214 L59,214 " fill="#FEFFDD" style="stroke:#181818;stroke-width:0.5;"/><path d="M794,214 L794,224 L804,224 L794,214 " fill="#FEFFDD" style="stroke:#181818;stroke-width:0.5;"/><text fill="#000000" font-family="sans-serif" font-size="13" lengthAdjust="spacing" textLength="326" x="65" y="231.0669">- State transition occurs when `initialize()` is called</text><text fill="#000000" font-family="sans-serif" font-size="13" lengthAdjust="spacing" textLength="306" x="65" y="246.1997">- Sets state variables which impact transition to</text><text fill="#000000" font-family="sans-serif" font-size="13" font-weight="bold" lengthAdjust="spacing" textLength="183" x="375" y="246.1997">Vesting Endable Window</text><text fill="#000000" font-family="sans-serif" font-size="13" lengthAdjust="spacing" textLength="24" x="562" y="246.1997">and</text><text fill="#000000" font-family="sans-serif" font-size="13" font-weight="bold" lengthAdjust="spacing" textLength="155" x="590" y="246.1997">Vesting Ended State</text><text fill="#000000" font-family="sans-serif" font-size="13" lengthAdjust="spacing" textLength="40" x="749" y="246.1997">states</text></g><!--MD5=[ec351ab24ece9653454fd802fe4429a2]
link I to Revert--><g id="link_I_Revert"><path d="M745.829,179.019 C775.559,187.637 799.71,197.6 813,209 C834.772,227.675 844.41,259.7607 848.664,283.3671 " fill="none" id="I-to-Revert" style="stroke:#181818;stroke-width:1.0;"/><polygon fill="#181818" points="849.54,288.5682,851.9898,279.0289,848.7096,283.6376,844.1009,280.3575,849.54,288.5682" style="stroke:#181818;stroke-width:1.0;"/><path d="M847,221.5 L847,246.5 L1264,246.5 L1264,231.5 L1254,221.5 L847,221.5 " fill="#FEFFDD" style="stroke:#181818;stroke-width:0.5;"/><path d="M1254,221.5 L1254,231.5 L1264,231.5 L1254,221.5 " fill="#FEFFDD" style="stroke:#181818;stroke-width:0.5;"/><text fill="#000000" font-family="sans-serif" font-size="13" lengthAdjust="spacing" textLength="396" x="853" y="238.5669">Cannot be called once it has been called, will result in a revert</text></g><!--MD5=[42651d845f0bcf747cc4b66fa67c2154]
@startuml
[*] - -> I
I - -> V
I : **Initial State**
I : The storage state is uninitialized and there is no flow, but it should have balance of tokens equal to whatever the factory dictated.

I : The contract is only for this initial state briefly as we call `initialize()` in the same transaction that we create the clone instance.

I: It should **not** be possible to call any of the functions in this contract in the initial state other than `initialize()`.
note on link 
  - State transition occurs when `initialize()` is called 
  - Sets state variables which impact transition to **Vesting Endable Window** and **Vesting Ended State** states
end note

V: Vesting State

I - -> Revert
Revert: "Initializable: contract is already initialized"
note on link 
Cannot be called once it has been called, will result in a revert
end note
@enduml

PlantUML version 1.2022.8beta11(Unknown compile time)
(GPL source distribution)
Java Runtime: Java(TM) SE Runtime Environment
JVM: Java HotSpot(TM) 64-Bit Server VM
Default Encoding: UTF-8
Language: en
Country: US
--></g></svg>