<?xml version="1.0" encoding="UTF-8" standalone="no"?><svg xmlns="http://www.w3.org/2000/svg" xmlns:xlink="http://www.w3.org/1999/xlink" contentStyleType="text/css" height="222px" preserveAspectRatio="none" style="width:1924px;height:222px;background:#FFFFFF;" version="1.1" viewBox="0 0 1924 222" width="1924px" zoomAndPan="magnify"><defs/><g><g id="P"><rect fill="#F1F1F1" height="64.2344" rx="12.5" ry="12.5" style="stroke:#181818;stroke-width:0.5;" width="526" x="601" y="7"/><line style="stroke:#181818;stroke-width:0.5;" x1="601" x2="1127" y1="33.2969" y2="33.2969"/><text fill="#000000" font-family="sans-serif" font-size="14" lengthAdjust="spacing" textLength="9" x="859.5" y="24.9951">P</text><text fill="#000000" font-family="sans-serif" font-size="12" font-weight="bold" lengthAdjust="spacing" textLength="157" x="606" y="49.4355">Vesting Paused State</text><text fill="#000000" font-family="sans-serif" font-size="12" lengthAdjust="spacing" textLength="506" x="606" y="63.4043">The receiver (vestee) has deleted the flow from the `SuperfluidVestooor` instance.</text></g><g id="V"><rect fill="#F1F1F1" height="50.2656" rx="12.5" ry="12.5" style="stroke:#181818;stroke-width:0.5;" width="120" x="7" y="166"/><line style="stroke:#181818;stroke-width:0.5;" x1="7" x2="127" y1="192.2969" y2="192.2969"/><text fill="#000000" font-family="sans-serif" font-size="14" lengthAdjust="spacing" textLength="10" x="62" y="183.9951">V</text><text fill="#000000" font-family="sans-serif" font-size="12" font-weight="bold" lengthAdjust="spacing" textLength="100" x="12" y="208.4355">Vesting State</text></g><g id="E"><rect fill="#F1F1F1" height="50.2656" rx="12.5" ry="12.5" style="stroke:#181818;stroke-width:0.5;" width="168" x="516" y="166"/><line style="stroke:#181818;stroke-width:0.5;" x1="516" x2="684" y1="192.2969" y2="192.2969"/><text fill="#000000" font-family="sans-serif" font-size="14" lengthAdjust="spacing" textLength="9" x="595.5" y="183.9951">E</text><text fill="#000000" font-family="sans-serif" font-size="12" font-weight="bold" lengthAdjust="spacing" textLength="148" x="521" y="208.4355">Vesting Ended State</text></g><g id="W"><rect fill="#F1F1F1" height="50.2656" rx="12.5" ry="12.5" style="stroke:#181818;stroke-width:0.5;" width="195" x="1030.5" y="166"/><line style="stroke:#181818;stroke-width:0.5;" x1="1030.5" x2="1225.5" y1="192.2969" y2="192.2969"/><text fill="#000000" font-family="sans-serif" font-size="14" lengthAdjust="spacing" textLength="14" x="1121" y="183.9951">W</text><text fill="#000000" font-family="sans-serif" font-size="12" font-weight="bold" lengthAdjust="spacing" textLength="175" x="1035.5" y="208.4355">Vesting Endable Window</text></g><g id="Revert"><rect fill="#F1F1F1" height="50.2656" rx="12.5" ry="12.5" style="stroke:#181818;stroke-width:0.5;" width="134" x="1383" y="166"/><line style="stroke:#181818;stroke-width:0.5;" x1="1383" x2="1517" y1="192.2969" y2="192.2969"/><text fill="#000000" font-family="sans-serif" font-size="14" lengthAdjust="spacing" textLength="49" x="1425.5" y="183.9951">Revert</text><text fill="#000000" font-family="sans-serif" font-size="12" lengthAdjust="spacing" textLength="114" x="1388" y="208.4355">DOES_NOT_EXIST()</text></g><!--MD5=[f440154a5e779dc80cf5c6d04a4115df]
link P to V--><g id="link_P_V"><path d="M601,45.268 C390.645,51.995 124.648,67.147 86,101 C69.4169,115.526 65.2664,140.6566 64.9223,160.5169 " fill="none" id="P-to-V" style="stroke:#181818;stroke-width:1.0;"/><polygon fill="#181818" points="64.9151,165.7036,68.9277,156.7092,64.9221,160.7036,60.9277,156.698,64.9151,165.7036" style="stroke:#181818;stroke-width:1.0;"/><path d="M91,106 L91,131 L574,131 L574,116 L564,106 L91,106 " fill="#FEFFDD" style="stroke:#181818;stroke-width:0.5;"/><path d="M564,106 L564,116 L574,116 L564,106 " fill="#FEFFDD" style="stroke:#181818;stroke-width:0.5;"/><text fill="#000000" font-family="sans-serif" font-size="13" lengthAdjust="spacing" textLength="462" x="97" y="123.0669">Occurs when `restartVesting()` is called and `canStopVesting()` is false</text></g><!--MD5=[f884a522799d1c1af466ab1b000ae896]
link P to E--><g id="link_P_E"><path d="M655.986,71.021 C628.588,79.038 606.634,88.917 597,101 C583.874,117.4636 585.563,141.5999 590.019,160.5851 " fill="none" id="P-to-E" style="stroke:#181818;stroke-width:1.0;"/><polygon fill="#181818" points="591.34,165.7926,593.0059,156.0857,590.1114,160.9459,585.2512,158.0514,591.34,165.7926" style="stroke:#181818;stroke-width:1.0;"/><path d="M602,106 L602,131 L1080,131 L1080,116 L1070,106 L602,106 " fill="#FEFFDD" style="stroke:#181818;stroke-width:0.5;"/><path d="M1070,106 L1070,116 L1080,116 L1070,106 " fill="#FEFFDD" style="stroke:#181818;stroke-width:0.5;"/><text fill="#000000" font-family="sans-serif" font-size="13" lengthAdjust="spacing" textLength="457" x="608" y="123.0669">Occurs when `restartVesting()` is called and `canStopVesting()` is true</text></g><!--MD5=[f438c26f7b715e08b8c4ab25d1b0b87b]
link P to W--><g id="link_P_W"><path d="M1040.78,71.01 C1058.24,78.879 1074.74,88.714 1089,101 C1106.79,116.3298 1116.76,141.3034 1122.16,160.9002 " fill="none" id="P-to-W" style="stroke:#181818;stroke-width:1.0;"/><polygon fill="#181818" points="1123.44,165.7574,1125.0186,156.0359,1122.1679,160.9219,1117.2818,158.0712,1123.44,165.7574" style="stroke:#181818;stroke-width:1.0;"/><path d="M1118,106 L1118,131 L1390,131 L1390,116 L1380,106 L1118,106 " fill="#FEFFDD" style="stroke:#181818;stroke-width:0.5;"/><path d="M1380,106 L1380,116 L1390,116 L1380,106 " fill="#FEFFDD" style="stroke:#181818;stroke-width:0.5;"/><text fill="#000000" font-family="sans-serif" font-size="13" lengthAdjust="spacing" textLength="251" x="1124" y="123.0669">Occurs once `canStopVesting()` is true</text></g><!--MD5=[5d82a3c92642da5152a82c89567135ca]
link P to Revert--><g id="link_P_Revert"><path d="M1127.18,46.909 C1240.5,54.471 1357.4,69.881 1403,101 C1423.36,114.892 1435.55,140.493 1442.39,160.6834 " fill="none" id="P-to-Revert" style="stroke:#181818;stroke-width:1.0;"/><polygon fill="#181818" points="1444.02,165.6896,1445.0438,155.8941,1442.4753,160.9342,1437.4352,158.3657,1444.02,165.6896" style="stroke:#181818;stroke-width:1.0;"/><path d="M1436,106 L1436,131 L1917,131 L1917,116 L1907,106 L1436,106 " fill="#FEFFDD" style="stroke:#181818;stroke-width:0.5;"/><path d="M1907,106 L1907,116 L1917,116 L1907,106 " fill="#FEFFDD" style="stroke:#181818;stroke-width:0.5;"/><text fill="#000000" font-family="sans-serif" font-size="13" lengthAdjust="spacing" textLength="460" x="1442" y="123.0669">Occurs once `stopVesting()` is called because there is no flow to delete</text></g><!--MD5=[e94c5a6a0a1fd569b9d4845e64dff215]
@startuml
P - -> V
P : **Vesting Paused State**
V : **Vesting State**
P :The receiver (vestee) has deleted the flow from the `SuperfluidVestooor` instance.

note on link
Occurs when `restartVesting()` is called and `canStopVesting()` is false
end note

P - -> E
E : **Vesting Ended State**

note on link
Occurs when `restartVesting()` is called and `canStopVesting()` is true
end note

P - -> W
W : **Vesting Endable Window**

note on link
Occurs once `canStopVesting()` is true
end note

P - -> Revert
Revert: DOES_NOT_EXIST()
note on link
Occurs once `stopVesting()` is called because there is no flow to delete
end note
@enduml

PlantUML version 1.2022.8beta11(Unknown compile time)
(GPL source distribution)
Java Runtime: Java(TM) SE Runtime Environment
JVM: Java HotSpot(TM) 64-Bit Server VM
Default Encoding: UTF-8
Language: en
Country: US
--></g></svg>